<?xml version="1.0" encoding="UTF-8" standalone="no"?>
<!DOCTYPE svg PUBLIC "-//W3C//DTD SVG 1.1//EN"
 "http://www.w3.org/Graphics/SVG/1.1/DTD/svg11.dtd">
<!-- Generated by graphviz version 2.43.0 (0)
 -->
<!-- Title: urdf Pages: 1 -->
<svg width="382pt" height="493pt"
 viewBox="0.00 0.00 382.40 493.40" xmlns="http://www.w3.org/2000/svg" xmlns:xlink="http://www.w3.org/1999/xlink">
<g id="graph0" class="graph" transform="scale(1 1) rotate(0) translate(7.2 486.2)">
<title>urdf</title>
<polygon fill="white" stroke="transparent" points="-7.2,7.2 -7.2,-486.2 375.2,-486.2 375.2,7.2 -7.2,7.2"/>
<!-- world -->
<g id="node1" class="node">
<title>world</title>
<path fill="#dbe7f3" stroke="#1f3b5a" stroke-width="1.2" d="M148.83,-479C148.83,-479 111.17,-479 111.17,-479 106.33,-479 101.5,-474.17 101.5,-469.33 101.5,-469.33 101.5,-459.67 101.5,-459.67 101.5,-454.83 106.33,-450 111.17,-450 111.17,-450 148.83,-450 148.83,-450 153.67,-450 158.5,-454.83 158.5,-459.67 158.5,-459.67 158.5,-469.33 158.5,-469.33 158.5,-474.17 153.67,-479 148.83,-479"/>
<text text-anchor="start" x="109.5" y="-462" font-family="Liberation Sans" font-weight="bold" font-size="15.00">world</text>
</g>
<!-- base_link -->
<g id="node2" class="node">
<title>base_link</title>
<path fill="#dbe7f3" stroke="#1f3b5a" stroke-width="1.2" d="M162.83,-415C162.83,-415 97.17,-415 97.17,-415 92.33,-415 87.5,-410.17 87.5,-405.33 87.5,-405.33 87.5,-395.67 87.5,-395.67 87.5,-390.83 92.33,-386 97.17,-386 97.17,-386 162.83,-386 162.83,-386 167.67,-386 172.5,-390.83 172.5,-395.67 172.5,-395.67 172.5,-405.33 172.5,-405.33 172.5,-410.17 167.67,-415 162.83,-415"/>
<text text-anchor="start" x="95.5" y="-398" font-family="Liberation Sans" font-weight="bold" font-size="15.00">base_link</text>
</g>
<!-- world&#45;&gt;base_link -->
<g id="edge1" class="edge">
<title>world&#45;&gt;base_link</title>
<path fill="none" stroke="#7a7a7a" stroke-width="1.3" stroke-dasharray="5,2" d="M130,-449.74C130,-441.71 130,-431.43 130,-422.41"/>
<polygon fill="#7a7a7a" stroke="#7a7a7a" stroke-width="1.3" points="132.45,-422.22 130,-415.22 127.55,-422.22 132.45,-422.22"/>
<text text-anchor="start" x="130" y="-428.8" font-family="Liberation Sans" font-size="14.00" fill="#555555">virtual_joint (fixed)</text>
</g>
<!-- base_plate -->
<g id="node3" class="node">
<title>base_plate</title>
<path fill="#dbe7f3" stroke="#1f3b5a" stroke-width="1.2" d="M167.33,-338C167.33,-338 92.67,-338 92.67,-338 87.83,-338 83,-333.17 83,-328.33 83,-328.33 83,-318.67 83,-318.67 83,-313.83 87.83,-309 92.67,-309 92.67,-309 167.33,-309 167.33,-309 172.17,-309 177,-313.83 177,-318.67 177,-318.67 177,-328.33 177,-328.33 177,-333.17 172.17,-338 167.33,-338"/>
<text text-anchor="start" x="91" y="-321" font-family="Liberation Sans" font-weight="bold" font-size="15.00">base_plate</text>
</g>
<!-- base_link&#45;&gt;base_plate -->
<g id="edge2" class="edge">
<title>base_link&#45;&gt;base_plate</title>
<path fill="none" stroke="#b5651d" stroke-width="2" d="M130,-385.74C130,-374.43 130,-358.22 130,-345.32"/>
<polygon fill="#b5651d" stroke="#b5651d" stroke-width="2" points="132.45,-345.17 130,-338.17 127.55,-345.17 132.45,-345.17"/>
<text text-anchor="start" x="130" y="-365.8" font-family="Liberation Sans" font-weight="bold" font-size="14.00">joint_1</text>
<text text-anchor="start" x="174" y="-365.8" font-family="Liberation Sans" font-size="14.00"> (revolute, z)</text>
<text text-anchor="start" x="142" y="-351.8" font-family="Liberation Sans" font-size="14.00">[&#45;1.57, 1.57] rad</text>
</g>
<!-- forward_drive_arm -->
<g id="node4" class="node">
<title>forward_drive_arm</title>
<path fill="#dbe7f3" stroke="#1f3b5a" stroke-width="1.2" d="M196.33,-261C196.33,-261 63.67,-261 63.67,-261 58.83,-261 54,-256.17 54,-251.33 54,-251.33 54,-241.67 54,-241.67 54,-236.83 58.83,-232 63.67,-232 63.67,-232 196.33,-232 196.33,-232 201.17,-232 206,-236.83 206,-241.67 206,-241.67 206,-251.33 206,-251.33 206,-256.17 201.17,-261 196.33,-261"/>
<text text-anchor="start" x="62" y="-244" font-family="Liberation Sans" font-weight="bold" font-size="15.00">forward_drive_arm</text>
</g>
<!-- base_plate&#45;&gt;forward_drive_arm -->
<g id="edge3" class="edge">
<title>base_plate&#45;&gt;forward_drive_arm</title>
<path fill="none" stroke="#b5651d" stroke-width="2" d="M130,-308.74C130,-297.43 130,-281.22 130,-268.32"/>
<polygon fill="#b5651d" stroke="#b5651d" stroke-width="2" points="132.45,-268.17 130,-261.17 127.55,-268.17 132.45,-268.17"/>
<text text-anchor="start" x="130" y="-288.8" font-family="Liberation Sans" font-weight="bold" font-size="14.00">joint_2</text>
<text text-anchor="start" x="174" y="-288.8" font-family="Liberation Sans" font-size="14.00"> (revolute, x)</text>
<text text-anchor="start" x="142" y="-274.8" font-family="Liberation Sans" font-size="14.00">[&#45;1.57, 1.57] rad</text>
</g>
<!-- horizontal_arm -->
<g id="node5" class="node">
<title>horizontal_arm</title>
<path fill="#dbe7f3" stroke="#1f3b5a" stroke-width="1.2" d="M182.83,-184C182.83,-184 77.17,-184 77.17,-184 72.33,-184 67.5,-179.17 67.5,-174.33 67.5,-174.33 67.5,-164.67 67.5,-164.67 67.5,-159.83 72.33,-155 77.17,-155 77.17,-155 182.83,-155 182.83,-155 187.67,-155 192.5,-159.83 192.5,-164.67 192.5,-164.67 192.5,-174.33 192.5,-174.33 192.5,-179.17 187.67,-184 182.83,-184"/>
<text text-anchor="start" x="75.5" y="-167" font-family="Liberation Sans" font-weight="bold" font-size="15.00">horizontal_arm</text>
</g>
<!-- forward_drive_arm&#45;&gt;horizontal_arm -->
<g id="edge4" class="edge">
<title>forward_drive_arm&#45;&gt;horizontal_arm</title>
<path fill="none" stroke="#b5651d" stroke-width="2" d="M130,-231.74C130,-220.43 130,-204.22 130,-191.32"/>
<polygon fill="#b5651d" stroke="#b5651d" stroke-width="2" points="132.45,-191.17 130,-184.17 127.55,-191.17 132.45,-191.17"/>
<text text-anchor="start" x="130" y="-211.8" font-family="Liberation Sans" font-weight="bold" font-size="14.00">joint_3</text>
<text text-anchor="start" x="174" y="-211.8" font-family="Liberation Sans" font-size="14.00"> (revolute, x)</text>
<text text-anchor="start" x="142" y="-197.8" font-family="Liberation Sans" font-size="14.00">[&#45;1.57, 1.57] rad</text>
</g>
<!-- claw_support -->
<g id="node6" class="node">
<title>claw_support</title>
<path fill="#dbe7f3" stroke="#1f3b5a" stroke-width="1.2" d="M176.83,-120C176.83,-120 83.17,-120 83.17,-120 78.33,-120 73.5,-115.17 73.5,-110.33 73.5,-110.33 73.5,-100.67 73.5,-100.67 73.5,-95.83 78.33,-91 83.17,-91 83.17,-91 176.83,-91 176.83,-91 181.67,-91 186.5,-95.83 186.5,-100.67 186.5,-100.67 186.5,-110.33 186.5,-110.33 186.5,-115.17 181.67,-120 176.83,-120"/>
<text text-anchor="start" x="81.5" y="-103" font-family="Liberation Sans" font-weight="bold" font-size="15.00">claw_support</text>
</g>
<!-- horizontal_arm&#45;&gt;claw_support -->
<g id="edge5" class="edge">
<title>horizontal_arm&#45;&gt;claw_support</title>
<path fill="none" stroke="#7a7a7a" stroke-width="1.3" stroke-dasharray="5,2" d="M130,-154.74C130,-146.71 130,-136.43 130,-127.41"/>
<polygon fill="#7a7a7a" stroke="#7a7a7a" stroke-width="1.3" points="132.45,-127.22 130,-120.22 127.55,-127.22 132.45,-127.22"/>
<text text-anchor="start" x="130" y="-133.8" font-family="Liberation Sans" font-size="14.00" fill="#555555">horizontal_arm_to_claw_support (fixed)</text>
</g>
<!-- gripper_right -->
<g id="node7" class="node">
<title>gripper_right</title>
<path fill="#dbe7f3" stroke="#1f3b5a" stroke-width="1.2" d="M100.33,-29C100.33,-29 9.67,-29 9.67,-29 4.83,-29 0,-24.17 0,-19.33 0,-19.33 0,-9.67 0,-9.67 0,-4.83 4.83,0 9.67,0 9.67,0 100.33,0 100.33,0 105.17,0 110,-4.83 110,-9.67 110,-9.67 110,-19.33 110,-19.33 110,-24.17 105.17,-29 100.33,-29"/>
<text text-anchor="start" x="8" y="-12" font-family="Liberation Sans" font-weight="bold" font-size="15.00">gripper_right</text>
</g>
<!-- claw_support&#45;&gt;gripper_right -->
<g id="edge6" class="edge">
<title>claw_support&#45;&gt;gripper_right</title>
<path fill="none" stroke="#b5651d" stroke-width="2" d="M73.22,-96C65.71,-92.5 58.92,-87.67 54,-81 44.63,-68.3 45.72,-50.11 48.67,-36.13"/>
<polygon fill="#b5651d" stroke="#b5651d" stroke-width="2" points="51.07,-36.63 50.34,-29.25 46.31,-35.47 51.07,-36.63"/>
<text text-anchor="start" x="54" y="-63.8" font-family="Liberation Sans" font-weight="bold" font-size="14.00">joint_4</text>
<text text-anchor="start" x="98" y="-63.8" font-family="Liberation Sans" font-size="14.00"> (revolute, z)</text>
<text text-anchor="start" x="66" y="-49.8" font-family="Liberation Sans" font-size="14.00">[&#45;1.57, 0.00] rad</text>
</g>
<!-- gripper_left -->
<g id="node8" class="node">
<title>gripper_left</title>
<path fill="#dbe7f3" stroke="#1f3b5a" stroke-width="1.2" d="M245.33,-29C245.33,-29 164.67,-29 164.67,-29 159.83,-29 155,-24.17 155,-19.33 155,-19.33 155,-9.67 155,-9.67 155,-4.83 159.83,0 164.67,0 164.67,0 245.33,0 245.33,0 250.17,0 255,-4.83 255,-9.67 255,-9.67 255,-19.33 255,-19.33 255,-24.17 250.17,-29 245.33,-29"/>
<text text-anchor="start" x="163" y="-12" font-family="Liberation Sans" font-weight="bold" font-size="15.00">gripper_left</text>
</g>
<!-- claw_support&#45;&gt;gripper_left -->
<g id="edge7" class="edge">
<title>claw_support&#45;&gt;gripper_left</title>
<path fill="none" stroke="#b5651d" stroke-width="2" d="M163.57,-90.85C168.11,-88.05 172.43,-84.78 176,-81 187.94,-68.38 195.48,-50.04 199.87,-35.97"/>
<polygon fill="#b5651d" stroke="#b5651d" stroke-width="2" points="202.28,-36.46 201.89,-29.06 197.57,-35.09 202.28,-36.46"/>
<text text-anchor="start" x="198" y="-70.8" font-family="Liberation Sans" font-weight="bold" font-size="14.00">joint_5</text>
<text text-anchor="start" x="242" y="-70.8" font-family="Liberation Sans" font-size="14.00"> (revolute, z)</text>
<text text-anchor="start" x="212.5" y="-56.8" font-family="Liberation Sans" font-size="14.00">[0.00, 1.57] rad</text>
<text text-anchor="start" x="200" y="-42.8" font-family="Liberation Sans" font-weight="bold" font-size="14.00" fill="#9b3d2b">mimic joint_4 × &#45;1</text>
</g>
</g>
</svg>
