<?xml version="1.0" encoding="UTF-8" standalone="no"?>
<!DOCTYPE svg PUBLIC "-//W3C//DTD SVG 1.1//EN"
 "http://www.w3.org/Graphics/SVG/1.1/DTD/svg11.dtd">
<!-- Generated by graphviz version 2.43.0 (0)
 -->
<!-- Title: arch Pages: 1 -->
<svg width="748pt" height="301pt"
 viewBox="0.00 0.00 748.40 301.40" xmlns="http://www.w3.org/2000/svg" xmlns:xlink="http://www.w3.org/1999/xlink">
<g id="graph0" class="graph" transform="scale(1 1) rotate(0) translate(7.2 294.2)">
<title>arch</title>
<polygon fill="white" stroke="transparent" points="-7.2,7.2 -7.2,-294.2 741.2,-294.2 741.2,7.2 -7.2,7.2"/>
<!-- xacro_file -->
<g id="node1" class="node">
<title>xacro_file</title>
<polygon fill="#f2f2f2" stroke="#1f3b5a" stroke-width="1.3" points="179,-287 3,-287 3,-249 185,-249 185,-281 179,-287"/>
<polyline fill="none" stroke="#1f3b5a" stroke-width="1.3" points="179,-287 179,-281 "/>
<polyline fill="none" stroke="#1f3b5a" stroke-width="1.3" points="185,-281 179,-281 "/>
<text text-anchor="start" x="11" y="-271.2" font-family="Liberation Sans" font-weight="bold" font-size="16.00">arduinobot.urdf.xacro</text>
<text text-anchor="start" x="23" y="-256.8" font-family="Liberation Sans" font-size="14.00">links, joints, mesh URIs</text>
</g>
<!-- xacro_cmd -->
<g id="node2" class="node">
<title>xacro_cmd</title>
<polygon fill="#f2f2f2" stroke="#1f3b5a" stroke-width="1.3" points="405,-287 237,-287 237,-283 233,-283 233,-279 237,-279 237,-257 233,-257 233,-253 237,-253 237,-249 405,-249 405,-287"/>
<polyline fill="none" stroke="#1f3b5a" stroke-width="1.3" points="237,-283 241,-283 241,-279 237,-279 "/>
<polyline fill="none" stroke="#1f3b5a" stroke-width="1.3" points="237,-257 241,-257 241,-253 237,-253 "/>
<text text-anchor="start" x="299.5" y="-271.2" font-family="Liberation Sans" font-weight="bold" font-size="16.00">xacro</text>
<text text-anchor="start" x="245" y="-256.8" font-family="Liberation Sans" font-size="14.00">Command() in launch file</text>
</g>
<!-- xacro_file&#45;&gt;xacro_cmd -->
<g id="edge1" class="edge">
<title>xacro_file&#45;&gt;xacro_cmd</title>
<path fill="none" stroke="#1f3b5a" stroke-width="1.3" d="M185.02,-268C198.82,-268 213.08,-268 226.94,-268"/>
<polygon fill="#1f3b5a" stroke="#1f3b5a" stroke-width="1.3" points="226.94,-271.5 236.94,-268 226.94,-264.5 226.94,-271.5"/>
<text text-anchor="middle" x="211" y="-274.8" font-family="Liberation Sans" font-size="14.00"> path </text>
</g>
<!-- rsp -->
<g id="node3" class="node">
<title>rsp</title>
<path fill="#dbe7f3" stroke="#1f3b5a" stroke-width="1.3" d="M401.5,-203C401.5,-203 240.5,-203 240.5,-203 234.5,-203 228.5,-197 228.5,-191 228.5,-191 228.5,-179 228.5,-179 228.5,-173 234.5,-167 240.5,-167 240.5,-167 401.5,-167 401.5,-167 407.5,-167 413.5,-173 413.5,-179 413.5,-179 413.5,-191 413.5,-191 413.5,-197 407.5,-203 401.5,-203"/>
<text text-anchor="start" x="236.5" y="-182.2" font-family="Liberation Sans" font-weight="bold" font-size="16.00">robot_state_publisher</text>
</g>
<!-- xacro_cmd&#45;&gt;rsp -->
<g id="edge2" class="edge">
<title>xacro_cmd&#45;&gt;rsp</title>
<path fill="none" stroke="#1f3b5a" stroke-width="1.3" d="M321,-248.62C321,-238.18 321,-224.92 321,-213.29"/>
<polygon fill="#1f3b5a" stroke="#1f3b5a" stroke-width="1.3" points="324.5,-213.2 321,-203.2 317.5,-213.2 324.5,-213.2"/>
<text text-anchor="middle" x="362" y="-222.8" font-family="Liberation Sans" font-size="14.00"> URDF string </text>
</g>
<!-- t_rd -->
<g id="node5" class="node">
<title>t_rd</title>
<polygon fill="#f6e3cf" stroke="#b5651d" stroke-width="1.3" points="537.5,-121 380.5,-121 380.5,-83 537.5,-83 537.5,-121"/>
<text text-anchor="start" x="388.5" y="-105.2" font-family="Liberation Sans" font-weight="bold" font-size="16.00">/robot_description</text>
<text text-anchor="start" x="395.5" y="-90.8" font-family="Liberation Sans" font-size="14.00">String, transient local</text>
</g>
<!-- rsp&#45;&gt;t_rd -->
<g id="edge3" class="edge">
<title>rsp&#45;&gt;t_rd</title>
<path fill="none" stroke="#1f3b5a" stroke-width="1.3" d="M350.27,-166.82C370.29,-155.07 397.09,-139.34 419.08,-126.43"/>
<polygon fill="#1f3b5a" stroke="#1f3b5a" stroke-width="1.3" points="421.01,-129.36 427.86,-121.28 417.46,-123.32 421.01,-129.36"/>
</g>
<!-- t_tf -->
<g id="node7" class="node">
<title>t_tf</title>
<polygon fill="#f6e3cf" stroke="#b5651d" stroke-width="1.3" points="261,-121 157,-121 157,-83 261,-83 261,-121"/>
<text text-anchor="start" x="201" y="-105.2" font-family="Liberation Sans" font-weight="bold" font-size="16.00">/tf</text>
<text text-anchor="start" x="165" y="-90.8" font-family="Liberation Sans" font-size="14.00">movable joints</text>
</g>
<!-- rsp&#45;&gt;t_tf -->
<g id="edge4" class="edge">
<title>rsp&#45;&gt;t_tf</title>
<path fill="none" stroke="#1f3b5a" stroke-width="1.3" d="M297.25,-166.82C281.36,-155.33 260.21,-140.03 242.6,-127.3"/>
<polygon fill="#1f3b5a" stroke="#1f3b5a" stroke-width="1.3" points="244.43,-124.3 234.27,-121.28 240.33,-129.98 244.43,-124.3"/>
</g>
<!-- t_tfs -->
<g id="node8" class="node">
<title>t_tfs</title>
<polygon fill="#f6e3cf" stroke="#b5651d" stroke-width="1.3" points="362.5,-121 279.5,-121 279.5,-83 362.5,-83 362.5,-121"/>
<text text-anchor="start" x="287.5" y="-105.2" font-family="Liberation Sans" font-weight="bold" font-size="16.00">/tf_static</text>
<text text-anchor="start" x="289" y="-90.8" font-family="Liberation Sans" font-size="14.00">fixed joints</text>
</g>
<!-- rsp&#45;&gt;t_tfs -->
<g id="edge5" class="edge">
<title>rsp&#45;&gt;t_tfs</title>
<path fill="none" stroke="#1f3b5a" stroke-width="1.3" d="M321,-166.82C321,-156.58 321,-143.33 321,-131.55"/>
<polygon fill="#1f3b5a" stroke="#1f3b5a" stroke-width="1.3" points="324.5,-131.28 321,-121.28 317.5,-131.28 324.5,-131.28"/>
</g>
<!-- jsp -->
<g id="node4" class="node">
<title>jsp</title>
<path fill="#dbe7f3" stroke="#1f3b5a" stroke-width="1.3" d="M679.5,-204C679.5,-204 476.5,-204 476.5,-204 470.5,-204 464.5,-198 464.5,-192 464.5,-192 464.5,-178 464.5,-178 464.5,-172 470.5,-166 476.5,-166 476.5,-166 679.5,-166 679.5,-166 685.5,-166 691.5,-172 691.5,-178 691.5,-178 691.5,-192 691.5,-192 691.5,-198 685.5,-204 679.5,-204"/>
<text text-anchor="start" x="480.5" y="-188.2" font-family="Liberation Sans" font-weight="bold" font-size="16.00">joint_state_publisher_gui</text>
<text text-anchor="start" x="472.5" y="-173.8" font-family="Liberation Sans" font-size="14.00">or joint_state_publisher (gui:=false)</text>
</g>
<!-- t_js -->
<g id="node6" class="node">
<title>t_js</title>
<polygon fill="#f6e3cf" stroke="#b5651d" stroke-width="1.3" points="666,-121 556,-121 556,-83 666,-83 666,-121"/>
<text text-anchor="start" x="564" y="-105.2" font-family="Liberation Sans" font-weight="bold" font-size="16.00">/joint_states</text>
<text text-anchor="start" x="580.5" y="-90.8" font-family="Liberation Sans" font-size="14.00">JointState</text>
</g>
<!-- jsp&#45;&gt;t_js -->
<g id="edge7" class="edge">
<title>jsp&#45;&gt;t_js</title>
<path fill="none" stroke="#1f3b5a" stroke-width="1.3" d="M585.49,-165.62C589.74,-155.19 595.14,-141.94 599.87,-130.31"/>
<polygon fill="#1f3b5a" stroke="#1f3b5a" stroke-width="1.3" points="603.12,-131.61 603.66,-121.03 596.64,-128.97 603.12,-131.61"/>
</g>
<!-- t_rd&#45;&gt;jsp -->
<g id="edge6" class="edge">
<title>t_rd&#45;&gt;jsp</title>
<path fill="none" stroke="#1f3b5a" stroke-width="1.3" d="M493.58,-121.09C501.74,-125.7 510.31,-130.82 518,-136 528.55,-143.1 539.56,-151.57 549.23,-159.4"/>
<polygon fill="#1f3b5a" stroke="#1f3b5a" stroke-width="1.3" points="547.04,-162.13 556.99,-165.78 551.49,-156.73 547.04,-162.13"/>
</g>
<!-- rviz -->
<g id="node9" class="node">
<title>rviz</title>
<path fill="#dbe7f3" stroke="#1f3b5a" stroke-width="1.3" d="M420.5,-45C420.5,-45 221.5,-45 221.5,-45 215.5,-45 209.5,-39 209.5,-33 209.5,-33 209.5,-19 209.5,-19 209.5,-13 215.5,-7 221.5,-7 221.5,-7 420.5,-7 420.5,-7 426.5,-7 432.5,-13 432.5,-19 432.5,-19 432.5,-33 432.5,-33 432.5,-39 426.5,-45 420.5,-45"/>
<text text-anchor="start" x="302.5" y="-29.2" font-family="Liberation Sans" font-weight="bold" font-size="16.00">rviz2</text>
<text text-anchor="start" x="217.5" y="-14.8" font-family="Liberation Sans" font-size="14.00">display.rviz · fixed frame base_link</text>
</g>
<!-- t_rd&#45;&gt;rviz -->
<g id="edge9" class="edge">
<title>t_rd&#45;&gt;rviz</title>
<path fill="none" stroke="#1f3b5a" stroke-width="1.3" d="M425.24,-82.9C406.7,-72.95 383.51,-60.52 363.72,-49.91"/>
<polygon fill="#1f3b5a" stroke="#1f3b5a" stroke-width="1.3" points="365.36,-46.81 354.89,-45.17 362.05,-52.98 365.36,-46.81"/>
</g>
<!-- t_js&#45;&gt;rsp -->
<g id="edge8" class="edge">
<title>t_js&#45;&gt;rsp</title>
<path fill="none" stroke="#1f3b5a" stroke-width="1.3" d="M555.82,-118.41C509.32,-131.4 442.5,-150.06 392.01,-164.16"/>
<polygon fill="#1f3b5a" stroke="#1f3b5a" stroke-width="1.3" points="390.84,-160.86 382.15,-166.92 392.72,-167.6 390.84,-160.86"/>
<text text-anchor="middle" x="525" y="-139.8" font-family="Liberation Sans" font-size="14.00"> subscribe </text>
</g>
<!-- t_tf&#45;&gt;rviz -->
<g id="edge10" class="edge">
<title>t_tf&#45;&gt;rviz</title>
<path fill="none" stroke="#1f3b5a" stroke-width="1.3" d="M236.4,-82.9C251.04,-73.22 269.25,-61.19 285.02,-50.77"/>
<polygon fill="#1f3b5a" stroke="#1f3b5a" stroke-width="1.3" points="287.08,-53.6 293.5,-45.17 283.22,-47.76 287.08,-53.6"/>
</g>
<!-- t_tfs&#45;&gt;rviz -->
<g id="edge11" class="edge">
<title>t_tfs&#45;&gt;rviz</title>
<path fill="none" stroke="#1f3b5a" stroke-width="1.3" d="M321,-82.71C321,-74.46 321,-64.54 321,-55.36"/>
<polygon fill="#1f3b5a" stroke="#1f3b5a" stroke-width="1.3" points="324.5,-55.08 321,-45.08 317.5,-55.08 324.5,-55.08"/>
</g>
<!-- opt -->
<g id="node11" class="node">
<title>opt</title>
<path fill="#f7f7f7" stroke="#9a9a9a" stroke-width="1.3" stroke-dasharray="5,2" d="M722,-52C722,-52 480,-52 480,-52 474,-52 468,-46 468,-40 468,-40 468,-12 468,-12 468,-6 474,0 480,0 480,0 722,0 722,0 728,0 734,-6 734,-12 734,-12 734,-40 734,-40 734,-46 728,-52 722,-52"/>
<text text-anchor="start" x="501.5" y="-36.2" font-family="Liberation Sans" font-weight="bold" font-size="16.00" fill="#555555">Optional, not verified here</text>
<text text-anchor="start" x="476" y="-21.8" font-family="Liberation Sans" font-size="14.00" fill="#555555">gazebo.launch.py (ros_gz); later sections:</text>
<text text-anchor="start" x="483.5" y="-7.8" font-family="Liberation Sans" font-size="14.00" fill="#555555">ros2_control, MoveIt 2, firmware, Alexa</text>
</g>
<!-- rviz&#45;&gt;opt -->
<!-- meshes -->
<g id="node10" class="node">
<title>meshes</title>
<polygon fill="#f2f2f2" stroke="#1f3b5a" stroke-width="1.3" points="122,-44 119,-48 98,-48 95,-44 0,-44 0,-8 122,-8 122,-44"/>
<text text-anchor="start" x="8" y="-23.2" font-family="Liberation Sans" font-weight="bold" font-size="16.00">meshes/*.STL</text>
</g>
<!-- meshes&#45;&gt;rviz -->
<g id="edge12" class="edge">
<title>meshes&#45;&gt;rviz</title>
<path fill="none" stroke="#1f3b5a" stroke-width="1.3" stroke-dasharray="5,2" d="M122.29,-26C145.38,-26 172.54,-26 199.24,-26"/>
<polygon fill="#1f3b5a" stroke="#1f3b5a" stroke-width="1.3" points="199.43,-29.5 209.43,-26 199.43,-22.5 199.43,-29.5"/>
<text text-anchor="middle" x="165.75" y="-32.8" font-family="Liberation Sans" font-size="14.00"> package:// </text>
</g>
</g>
</svg>
